:SAMPLES-PER-SECOND 30
:FULLY-SPECIFIED
:DEGREES
286
root  -2.02528 41.015 1.0734 1.2065 -89.0348 1.20654
RightUpLeg  1.37439 -0.442531 -0.629245
RightLeg  -3.98871 -18.4339 1.42445
RightFoot  0.606819 -0.216145 2.16255
RightToes  -3.10678e-008 1.75238e-005 3.56266e-009
Spine  2.79272 -2.65621 -13.211
Spine1  -4.38235 -5.19708 18.9722
HEad  -12.2794 4.15023 -2.46086
LeftShoulder1  0.380719 1.52907 -12.1393
LeftArm  -53.6998 -42.1488 13.6178
LeftForeArm  24.0088 -48.9487 -11.1054
LeftHand  -0.614626 -3.47848 8.3029
RightShoulder  2.61775 4.80256 25.4721
RightArm  -15.8509 -39.1549 42.1531
RightForeArm  45.9761 15.9415 6.765
RightHand  0.0784037 3.99219 0.686376
LeftUpLeg  0.327763 0.778739 1.94078
LeftLeg  -3.38775 13.1715 -1.64249
LeftFoot  0.981083 0.241919 -2.30376
LeftToes  4.76857e-008 1.46588e-008 1.31384e-009
287
root  -2.09859 41.0131 1.11256 -0.821732 -89.2896 3.44398
RightUpLeg  1.19802 -0.293038 -0.62339
RightLeg  -3.90977 -18.2943 1.22403
RightFoot  0.571747 -0.217652 2.16597
RightToes  -3.10678e-008 1.75238e-005 3.56266e-009
Spine  3.10841 -2.69655 -13.4328
Spine1  -4.9731 -5.21782 19.3602
HEad  -11.6364 5.03703 -2.36844
LeftShoulder1  0.23647 2.26082 -11.8706
LeftArm  -54.7773 -38.9655 12.2146
LeftForeArm  34.7162 -66.1623 -23.5837
LeftHand  -0.606544 -3.74624 8
RightShoulder  2.32917 4.10458 24.515
RightArm  -16.299 -41.0631 43.075
RightForeArm  43.6413 16.8527 6.18851
RightHand  0.064324 3.54918 0.583023
LeftUpLeg  0.304645 0.663884 1.81339
LeftLeg  -3.51908 13.605 -1.64176
LeftFoot  0.911598 0.232547 -2.21914
LeftToes  4.76857e-008 1.46588e-008 1.31384e-009
288
root  -2.14752 41.0101 1.14425 -5.34102 -89.601 8.07771
RightUpLeg  1.0525 -0.232371 -0.637716
RightLeg  -3.7806 -18.004 1.06009
RightFoot  0.580575 -0.213799 2.08743
RightToes  -3.10678e-008 1.75238e-005 3.56266e-009
Spine  3.92562 -2.7509 -14.0524
Spine1  -5.99273 -5.30313 20.2744
HEad  -10.3412 4.95133 -2.10662
LeftShoulder1  0.101191 2.96834 -11.7125
LeftArm  -55.9671 -35.919 12.45
LeftForeArm  75.6217 -79.5052 -67.809
LeftHand  -0.695519 -6.17151 7.30804
RightShoulder  2.01639 3.3958 23.0669
RightArm  -19.2494 -41.839 44.6051
RightForeArm  44.3852 16.5341 6.08229
RightHand  0.0855833 3.32707 0.90842
LeftUpLeg  0.321999 0.544011 1.69638
LeftLeg  -3.57879 14.0774 -1.62315
LeftFoot  0.840192 0.228941 -2.19264
LeftToes  4.76857e-008 1.46588e-008 1.31384e-009
289
root  -2.20629 41.0082 1.18233 177.427 -89.8716 -174.614
RightUpLeg  1.0155 -0.175164 -0.61784
RightLeg  -3.79928 -17.5476 0.967919
RightFoot  0.627357 -0.212416 2.04921
RightToes  -3.10678e-008 1.75238e-005 3.56266e-009
Spine  3.89622 -2.72272 -13.8667
Spine1  -5.99232 -5.24575 19.9745
HEad  -9.28314 4.98211 -1.83708
LeftShoulder1  -0.059511 3.82483 -11.2729
LeftArm  -58.2237 -36.5039 13.3707
LeftForeArm  138.064 -77.0206 -132.587
LeftHand  -0.937584 -8.33833 8.25795
RightShoulder  1.83216 2.9091 22.3795
RightArm  -21.8348 -41.814 45.9737
RightForeArm  45.1694 16.0729 6.04768
RightHand  0.191612 3.35232 2.29916
LeftUpLeg  0.512885 0.469556 1.64151
LeftLeg  -3.82927 14.7063 -1.66839
LeftFoot  0.812348 0.220993 -2.09456
LeftToes  4.76857e-008 1.46588e-008 1.31384e-009
290
root  -2.27222 41.0069 1.2082 -174.051 -89.3244 176.832
RightUpLeg  1.15965 -0.137695 -0.68099
RightLeg  -3.93153 -17.0272 0.940859
RightFoot  0.665001 -0.213601 2.05364
RightToes  -3.10678e-008 1.75238e-005 3.56266e-009
Spine  3.32813 -2.56368 -13.2308
Spine1  -5.57082 -4.96916 19.1012
HEad  -6.69565 5.15461 -1.81366
LeftShoulder1  -0.0911123 4.01758 -10.3574
LeftArm  -58.9565 -37.4642 13.0099
LeftForeArm  150.008 -72.7913 -146.097
LeftHand  -1.17143 -8.2634 10.2923
RightShoulder  1.8645 3.01175 22.415
RightArm  -23.8878 -41.743 46.8531
RightForeArm  45.5525 15.5662 6.06204
RightHand  0.146755 3.21096 1.74877
LeftUpLeg  0.743215 0.419775 1.5207
LeftLeg  -3.88245 15.3052 -1.63247
LeftFoot  0.67941 0.223987 -2.16285
LeftToes  4.76857e-008 1.46588e-008 1.31384e-009
291
root  -2.3057 41.0065 1.23397 -176.472 -88.7889 178.753
RightUpLeg  1.65268 -0.24712 -0.738666
RightLeg  -3.81838 -16.3943 0.854243
RightFoot  0.586978 -0.219035 2.12764
RightToes  -3.10678e-008 1.75238e-005 3.56266e-009
Spine  3.29682 -2.30076 -12.5978
Spine1  -5.21252 -4.7125 18.6233
HEad  -4.18361 5.082 -3.11565
LeftShoulder1  -0.145196 4.31539 -10.6191
LeftArm  -59.5526 -38.3684 12.7955
LeftForeArm  147.44 -73.233 -144.443
LeftHand  -0.936496 -7.35094 8.8775
RightShoulder  1.99184 3.33938 22.9419
RightArm  -23.7004 -41.0642 46.6332
RightForeArm  44.3541 15.5844 6.09185
RightHand  0.182432 3.14023 2.24618
LeftUpLeg  1.34559 0.348695 1.37038
LeftLeg  -3.76128 15.9225 -1.47124
LeftFoot  0.54607 0.215867 -2.05473
LeftToes  4.76857e-008 1.46588e-008 1.31384e-009
292
root  -2.3167 41.0009 1.24691 -175.473 -88.5357 177.292
RightUpLeg  1.97099 -0.37142 -0.810715
RightLeg  -3.45977 -16.0258 0.718036
RightFoot  0.431145 -0.218149 2.10804
RightToes  -3.10678e-008 1.75238e-005 3.56266e-009
Spine  3.08195 -2.43051 -12.5192
Spine1  -4.49492 -4.9795 18.8352
HEad  -2.8424 5.96644 -4.31014
LeftShoulder1  -0.0999416 4.04648 -11.1393
LeftArm  -59.5088 -37.5007 12.1997
LeftForeArm  145.623 -74.546 -141.062
LeftHand  -0.909736 -7.54068 8.50684
RightShoulder  2.01152 3.38142 23.0508
RightArm  -23.8555 -39.2922 46.5951
RightForeArm  44.8589 15.1378 6.26497
RightHand  0.206695 3.68445 2.39355
LeftUpLeg  1.72105 0.439653 1.32312
LeftLeg  -3.38634 16.085 -1.41911
LeftFoot  0.307901 0.218843 -2.1158
LeftToes  4.76857e-008 1.46588e-008 1.31384e-009
293
root  -2.32847 40.9961 1.24602 -173.665 -88.3125 175.076
RightUpLeg  2.17817 -0.513249 -0.910001
RightLeg  -2.96324 -15.6556 0.578945
RightFoot  0.183177 -0.217612 2.09913
RightToes  -3.10678e-008 1.75238e-005 3.56266e-009
Spine  3.06078 -2.60329 -12.3952
Spine1  -3.89647 -5.22806 18.616
HEad  -2.0262 5.70883 -4.94597
LeftShoulder1  -0.1084 4.08637 -11.3858
LeftArm  -59.3799 -36.7321 11.7798
LeftForeArm  144.376 -74.8731 -139.953
LeftHand  -1.01004 -7.73389 9.27366
RightShoulder  2.07845 3.53068 23.4042
RightArm  -22.8808 -37.7211 46.6442
RightForeArm  43.3335 15.4735 6.24857
RightHand  0.138496 3.90852 1.45134
LeftUpLeg  2.22913 0.573346 1.30853
LeftLeg  -3.41925 16.1266 -1.54209
LeftFoot  0.250987 0.211893 -2.01941
LeftToes  4.76857e-008 1.46588e-008 1.31384e-009
294
root  -2.36295 40.9941 1.23836 -177.073 -88.2045 178.353
RightUpLeg  2.36722 -0.455562 -0.791953
RightLeg  -2.98394 -15.6191 0.583244
RightFoot  0.131357 -0.213968 2.0481
RightToes  -3.10678e-008 1.75238e-005 3.56266e-009
Spine  2.62194 -2.7194 -12.2969
Spine1  -3.26767 -5.39255 18.4741
HEad  -1.76667 6.80992 -5.06601
LeftShoulder1  -0.0985157 4.02449 -11.7173
LeftArm  -58.9613 -36.7758 11.4136
LeftForeArm  146.758 -74.2567 -141.988
LeftHand  -1.07743 -7.86939 9.77204
RightShoulder  2.02176 3.33429 23.4258
RightArm  -21.0448 -36.3837 46.9526
RightForeArm  40.3661 16.1235 6.20372
RightHand  0.0221426 3.72693 0.0261773
LeftUpLeg  2.45322 0.66854 1.4082
LeftLeg  -3.4345 16.14 -1.51893
LeftFoot  0.190872 0.214529 -2.06918
LeftToes  4.76857e-008 1.46588e-008 1.31384e-009
295
root  -2.41092 40.995 1.22529 -179.48 -88.177 -179.299
RightUpLeg  2.58408 -0.444979 -0.709358
RightLeg  -3.13983 -15.6004 0.660683
RightFoot  0.145436 -0.20967 1.99385
RightToes  -3.10678e-008 1.75238e-005 3.56266e-009
Spine  2.09837 -2.76934 -11.8357
Spine1  -2.80066 -5.3538 17.6792
HEad  -1.08949 6.98916 -4.37675
LeftShoulder1  -0.0806856 3.93417 -11.5367
LeftArm  -57.8717 -37.4615 11.0261
LeftForeArm  148.314 -73.7066 -143.568
LeftHand  -1.10293 -7.69876 10.1134
RightShoulder  2.05706 3.41697 23.5917
RightArm  -19.3495 -35.778 47.2576
RightForeArm  37.7227 16.917 6.01982
RightHand  -0.0102324 4.65461 -0.409816
LeftUpLeg  2.66061 0.665413 1.46801
LeftLeg  -3.55533 16.1871 -1.46127
LeftFoot  0.165177 0.224868 -2.23608
LeftToes  4.76857e-008 1.46588e-008 1.31384e-009
296
root  -2.43165 40.9969 1.2072 177.645 -88.1673 -176.35
RightUpLeg  2.63 -0.317741 -0.561371
RightLeg  -3.33349 -15.718 0.696093
RightFoot  0.216505 -0.210879 2.03277
RightToes  -3.10678e-008 1.75238e-005 3.56266e-009
Spine  1.78049 -2.68382 -11.6768
Spine1  -2.73798 -5.22715 17.5347
HEad  -0.317958 6.02934 -3.97519
LeftShoulder1  -0.0121216 3.56848 -11.6665
LeftArm  -57.1225 -37.575 11.1454
LeftForeArm  147.98 -73.4221 -144.147
LeftHand  -1.02853 -7.75721 9.42187
RightShoulder  2.06451 3.45475 23.5336
RightArm  -19.7685 -35.0418 47.4729
RightForeArm  38.1375 16.783 6.02742
RightHand  -0.0795081 4.62797 -1.21541
LeftUpLeg  2.57503 0.685114 1.56886
LeftLeg  -3.4627 16.1661 -1.37253
LeftFoot  0.12197 0.228638 -2.29842
LeftToes  4.76857e-008 1.46588e-008 1.31384e-009
297
root  -2.46152 40.9988 1.17339 177.105 -88.465 -175.835
RightUpLeg  2.77119 -0.317528 -0.518448
RightLeg  -3.38716 -16.0026 0.738528
RightFoot  0.173268 -0.213752 2.13416
RightToes  -3.10678e-008 1.75238e-005 3.56266e-009
Spine  1.47399 -2.71268 -11.7141
Spine1  -2.45683 -5.2637 17.4942
HEad  -0.0606018 6.34799 -4.38606
LeftShoulder1  0.0685437 3.1433 -11.8626
LeftArm  -56.6929 -37.7827 11.4168
LeftForeArm  147.284 -73.6384 -143.544
LeftHand  -1.02049 -7.51291 9.50956
RightShoulder  2.05744 3.42096 23.5795
RightArm  -19.5022 -34.3938 47.4322
RightForeArm  38.2596 16.8296 6.00708
RightHand  -0.0954527 4.42993 -1.41088
LeftUpLeg  2.59879 0.674245 1.60382
LeftLeg  -3.42165 15.8832 -1.29798
LeftFoot  0.131872 0.231562 -2.34538
LeftToes  4.76857e-008 1.46588e-008 1.31384e-009
298
root  -2.48244 40.9922 1.13054 176.963 -88.7834 -175.759
RightUpLeg  2.83867 -0.378254 -0.482503
RightLeg  -3.23821 -16.2642 0.752758
RightFoot  -0.00228894 -0.190739 1.91881
RightToes  -3.10678e-008 1.75238e-005 3.56266e-009
Spine  1.29278 -2.76938 -12.0588
Spine1  -2.06842 -5.42602 17.9303
HEad  0.0935886 5.76158 -4.94179
LeftShoulder1  0.0634317 3.17306 -12.0227
LeftArm  -56.8487 -37.8846 11.3104
LeftForeArm  147.343 -73.8119 -143.156
LeftHand  -0.923861 -7.4126 8.71406
RightShoulder  2.08745 3.53018 23.5402
RightArm  -19.1135 -33.796 47.272
RightForeArm  38.2285 16.9021 5.98817
RightHand  -0.0561593 4.39756 -0.968271
LeftUpLeg  2.63062 0.701653 1.64915
LeftLeg  -3.35097 15.5975 -1.27203
LeftFoot  0.0807633 0.231548 -2.34466
LeftToes  4.76857e-008 1.46588e-008 1.31384e-009
299
root  -2.51681 40.9914 1.08801 177.206 -89.2047 -176.087
RightUpLeg  3.11619 -0.444925 -0.458944
RightLeg  -3.41437 -16.6467 0.869108
RightFoot  -0.0498141 -0.181971 1.85283
RightToes  -3.10678e-008 1.75238e-005 3.56266e-009
Spine  1.08933 -2.89391 -12.0824
Spine1  -1.70314 -5.56973 17.8046
HEad  -0.223401 5.82471 -5.0752
LeftShoulder1  0.0569039 3.20681 -11.9959
LeftArm  -56.9299 -37.9995 11.2448
LeftForeArm  147.306 -73.908 -142.926
LeftHand  -0.989168 -7.61245 9.16787
RightShoulder  2.13073 3.6198 23.7882
RightArm  -18.5692 -33.5361 47.0013
RightForeArm  37.7542 16.8914 6.05848
RightHand  -0.147083 3.77787 -2.1255
LeftUpLeg  2.69493 0.685748 1.67902
LeftLeg  -3.27512 15.1725 -1.1788
LeftFoot  0.0487106 0.239905 -2.4724
LeftToes  4.76857e-008 1.46588e-008 1.31384e-009
